<svg class="fill-base-content stroke-base-content" width="66.8108108108108" height="24" viewBox="0 0 412 148" fill="#000" xmlns="http://www.w3.org/2000/svg"><path d="M42.0989 145.481C36.3418 145.481 31.7241 143.802 28.2459 140.444C24.8876 136.966 23.2084 132.288 23.2084 126.411V73.6972H3C1.34315 73.6972 0 72.354 0 70.6972V59.6057C0 57.9488 1.34315 56.6057 3 56.6057H23.2084V31C23.2084 29.3431 24.5515 28 26.2084 28H40.898C42.5549 28 43.8981 29.3431 43.8981 31V56.6057H66.4453C68.1021 56.6057 69.4453 57.9488 69.4453 59.6057V70.6971C69.4453 72.354 68.1021 73.6972 66.4453 73.6972H43.8981V122.993C43.8981 126.591 45.5772 128.39 48.9355 128.39H63.7466C65.4035 128.39 66.7466 129.733 66.7466 131.39V142.481C66.7466 144.138 65.4035 145.481 63.7466 145.481H42.0989Z"></path><path d="M120.441 148C111.566 148 103.59 146.201 96.5133 142.603C89.5568 138.885 84.0395 133.667 79.9616 126.951C76.0035 120.114 74.0245 111.958 74.0245 102.483V99.6042C74.0245 90.1289 76.0035 81.973 79.9616 75.1364C84.0395 68.2999 89.5568 63.0825 96.5133 59.4843C103.59 55.8861 111.566 54.087 120.441 54.087C129.317 54.087 137.233 55.8861 144.189 59.4843C151.146 63.0825 156.603 68.2999 160.561 75.1364C164.639 81.973 166.678 90.1289 166.678 99.6042V102.483C166.678 111.958 164.639 120.114 160.561 126.951C156.603 133.667 151.146 138.885 144.189 142.603C137.233 146.201 129.317 148 120.441 148ZM120.441 129.649C127.998 129.649 134.174 127.25 138.972 122.453C143.77 117.535 146.168 110.699 146.168 101.943V100.144C146.168 91.3883 143.77 84.6117 138.972 79.8141C134.174 74.8966 127.998 72.4378 120.441 72.4378C112.885 72.4378 106.708 74.8966 101.911 79.8141C97.113 84.6117 94.7142 91.3883 94.7142 100.144V101.943C94.7142 110.699 97.113 117.535 101.911 122.453C106.708 127.25 112.885 129.649 120.441 129.649Z"></path><path d="M182.682 145.481C181.025 145.481 179.682 144.138 179.682 142.481V59.6057C179.682 57.9488 181.025 56.6057 182.682 56.6057H197.012C198.669 56.6057 200.012 57.9488 200.012 59.6057V66.5008H203.071C204.63 63.5023 207.209 60.8636 210.807 58.5847C214.525 56.1859 219.442 54.9865 225.559 54.9865C232.036 54.9865 237.254 56.3058 241.212 58.9445C245.17 61.5832 248.168 64.9415 250.207 69.0195H253.086C255.125 64.9415 258.063 61.5832 261.901 58.9445C265.739 56.3058 271.197 54.9865 278.273 54.9865C283.79 54.9865 288.768 56.1859 293.206 58.5847C297.763 60.9835 301.361 64.5217 304 69.1994C306.759 73.8771 308.138 79.6942 308.138 86.6507V142.481C308.138 144.138 306.795 145.481 305.138 145.481H290.448C288.792 145.481 287.448 144.138 287.448 142.481V88.09C287.448 82.9325 286.069 79.0345 283.31 76.3958C280.552 73.6372 276.714 72.2579 271.796 72.2579C266.399 72.2579 262.081 74.057 258.843 77.6552C255.724 81.1334 254.165 86.1709 254.165 92.7676V142.481C254.165 144.138 252.822 145.481 251.165 145.481H236.655C234.998 145.481 233.655 144.138 233.655 142.481V88.09C233.655 82.9325 232.276 79.0345 229.517 76.3958C226.759 73.6372 222.921 72.2579 218.003 72.2579C212.486 72.2579 208.168 74.057 205.05 77.6552C201.931 81.1334 200.372 86.1709 200.372 92.7676V142.481C200.372 144.138 199.029 145.481 197.372 145.481H182.682Z"></path><path d="M352.12 148C345.884 148 340.246 146.921 335.209 144.762C330.171 142.483 326.153 139.244 323.155 135.046C320.276 130.849 318.837 125.691 318.837 119.574C318.837 113.577 320.276 108.54 323.155 104.462C326.153 100.384 330.231 97.3253 335.389 95.2864C340.546 93.1274 346.423 92.048 353.02 92.048H375.747C377.404 92.048 378.747 90.7048 378.747 89.048V86.6507C378.747 81.973 377.308 78.1949 374.429 75.3163C371.551 72.3178 367.053 70.8186 360.936 70.8186C354.939 70.8186 350.381 72.2579 347.263 75.1364C345.022 77.198 343.351 79.7284 342.249 82.7278C341.634 84.4008 339.851 85.4439 338.158 84.8851L325.047 80.5558C323.496 80.0438 322.628 78.3798 323.227 76.8606C324.646 73.2594 326.601 69.9261 329.092 66.8606C332.33 63.0225 336.588 59.964 341.866 57.6852C347.143 55.2864 353.62 54.087 361.296 54.087C372.93 54.087 382.046 57.0255 388.642 62.9026C395.359 68.6597 398.717 77.0555 398.717 88.09V122.993C398.717 126.591 400.396 128.39 403.755 128.39H408.311C409.968 128.39 411.311 129.733 411.311 131.39V142.481C411.311 144.138 409.968 145.481 408.311 145.481H396.738C392.42 145.481 388.882 144.402 386.123 142.243C383.365 140.084 381.986 137.145 381.986 133.427V133.427C381.986 133.229 381.824 133.067 381.626 133.067H378.927C378.207 134.747 376.948 136.786 375.149 139.184C373.35 141.583 370.591 143.682 366.873 145.481C363.275 147.16 358.357 148 352.12 148ZM355.539 131.088C362.375 131.088 367.953 129.169 372.27 125.331C376.588 121.373 378.747 116.096 378.747 109.499V107.7H354.279C349.842 107.7 346.243 108.66 343.485 110.579C340.726 112.498 339.347 115.316 339.347 119.034C339.347 122.633 340.786 125.571 343.665 127.85C346.543 130.009 350.501 131.088 355.539 131.088Z"></path><path d="M65.226 7.65685C74.5979 8.4912 93.9411 15.8818 96.3387 38.7696" stroke-width="15" stroke-linecap="round"></path><path d="M61.0037 28.8479C64.9241 29.5667 73.2411 33.4015 75.1458 42.99" stroke-width="15" stroke-linecap="round"></path></svg>